<svg width="18" height="4" viewBox="0 0 18 4" fill="none" xmlns="http://www.w3.org/2000/svg">
<path d="M9.07187 3.06372C9.58337 3.06372 9.99802 2.64907 9.99802 2.13757C9.99802 1.62608 9.58337 1.21143 9.07187 1.21143C8.56037 1.21143 8.14572 1.62608 8.14572 2.13757C8.14572 2.64907 8.56037 3.06372 9.07187 3.06372Z" stroke="#00214D" stroke-width="1.8523" stroke-linecap="round" stroke-linejoin="round"/>
<path d="M15.5549 3.06372C16.0664 3.06372 16.4811 2.64907 16.4811 2.13757C16.4811 1.62608 16.0664 1.21143 15.5549 1.21143C15.0434 1.21143 14.6288 1.62608 14.6288 2.13757C14.6288 2.64907 15.0434 3.06372 15.5549 3.06372Z" stroke="#00214D" stroke-width="1.8523" stroke-linecap="round" stroke-linejoin="round"/>
<path d="M2.58884 3.06372C3.10033 3.06372 3.51498 2.64907 3.51498 2.13757C3.51498 1.62608 3.10033 1.21143 2.58884 1.21143C2.07734 1.21143 1.66269 1.62608 1.66269 2.13757C1.66269 2.64907 2.07734 3.06372 2.58884 3.06372Z" stroke="#00214D" stroke-width="1.8523" stroke-linecap="round" stroke-linejoin="round"/>
</svg>
